<?xml version="1.0" encoding="UTF-8" standalone="no"?><!DOCTYPE svg PUBLIC "-//W3C//DTD SVG 1.1//EN" "http://www.w3.org/Graphics/SVG/1.1/DTD/svg11.dtd"><svg width="100%" height="100%" viewBox="0 0 138 138" version="1.1" xmlns="http://www.w3.org/2000/svg" xmlns:xlink="http://www.w3.org/1999/xlink" xml:space="preserve" xmlns:serif="http://www.serif.com/" style="fill-rule:evenodd;clip-rule:evenodd;stroke-linejoin:round;stroke-miterlimit:2;"><g id="qclick-icon"><path d="M137.032,136.637l-68.188,-0c-38.641,-0 -68.189,-29.548 -68.189,-68.189c0,-38.64 29.548,-68.188 68.189,-68.188c38.64,-0 68.188,29.548 68.188,68.188l0,68.189Zm-44.138,-28.72l5.688,5.689l14.357,-14.356l-5.451,-5.451c4.789,-7.281 7.576,-15.993 7.576,-25.351c-0,-25.509 -20.711,-46.22 -46.22,-46.22c-25.51,0 -46.22,20.711 -46.22,46.22c-0,25.51 20.71,46.22 46.22,46.22c8.807,0 17.042,-2.468 24.05,-6.751Zm-13.37,-13.369c-3.295,1.351 -6.901,2.096 -10.68,2.096c-15.562,0 -28.196,-12.634 -28.196,-28.196c-0,-15.561 12.634,-28.196 28.196,-28.196c15.561,0 28.195,12.635 28.195,28.196c0,4.351 -0.987,8.472 -2.749,12.153l-6.475,-6.475l-14.356,14.356l6.065,6.066Z" style="fill:#ff001e;"/></g></svg>