<?xml version="1.0" encoding="UTF-8" standalone="no"?><!DOCTYPE svg PUBLIC "-//W3C//DTD SVG 1.1//EN" "http://www.w3.org/Graphics/SVG/1.1/DTD/svg11.dtd"><svg width="100%" height="100%" viewBox="0 0 465 137" version="1.1" xmlns="http://www.w3.org/2000/svg" xmlns:xlink="http://www.w3.org/1999/xlink" xml:space="preserve" xmlns:serif="http://www.serif.com/" style="fill-rule:evenodd;clip-rule:evenodd;stroke-linejoin:round;stroke-miterlimit:2;"><g id="qclick-logo"><path d="M200.662,81.701c-1.168,-1.698 -2.813,-3.105 -4.936,-4.22c-2.123,-1.114 -4.406,-1.672 -6.847,-1.672c-6.051,0 -10.749,1.805 -14.093,5.414c-3.344,3.61 -5.015,8.334 -5.015,14.172c-0,5.839 1.671,10.563 5.015,14.172c3.344,3.609 8.042,5.414 14.093,5.414c2.654,0 4.936,-0.584 6.847,-1.752c1.911,-1.167 3.556,-2.547 4.936,-4.14l15.764,16.561c-3.715,3.821 -8.094,6.502 -13.137,8.041c-5.042,1.539 -9.846,2.309 -14.41,2.309c-5.945,0 -11.545,-0.955 -16.8,-2.866c-5.254,-1.911 -9.819,-4.645 -13.694,-8.201c-3.874,-3.556 -6.926,-7.829 -9.156,-12.818c-2.229,-4.989 -3.344,-10.563 -3.344,-16.72c0,-6.157 1.115,-11.73 3.344,-16.719c2.23,-4.99 5.282,-9.263 9.156,-12.819c3.875,-3.556 8.44,-6.289 13.694,-8.2c5.255,-1.911 10.855,-2.867 16.8,-2.867c4.564,0 9.368,0.77 14.41,2.309c5.043,1.54 9.422,4.22 13.137,8.042l-15.764,16.56Z" style="fill:#ff001e;fill-rule:nonzero;"/><rect x="225.343" y="13.708" width="23.885" height="120.381" style="fill:#ff001e;fill-rule:nonzero;"/><path d="M266.744,56.701l23.885,0l0,77.388l-23.885,0l0,-77.388Zm-1.911,-24.363c0,-3.821 1.354,-7.085 4.061,-9.792c2.707,-2.707 5.971,-4.061 9.793,-4.061c3.821,0 7.086,1.354 9.793,4.061c2.707,2.707 4.06,5.971 4.06,9.792c0,3.822 -1.353,7.086 -4.06,9.793c-2.707,2.707 -5.972,4.061 -9.793,4.061c-3.822,-0 -7.086,-1.354 -9.793,-4.061c-2.707,-2.707 -4.061,-5.971 -4.061,-9.793Z" style="fill:#ff001e;fill-rule:nonzero;"/><path d="M360.215,81.701c-1.168,-1.698 -2.813,-3.105 -4.936,-4.22c-2.124,-1.114 -4.406,-1.672 -6.848,-1.672c-6.05,0 -10.748,1.805 -14.092,5.414c-3.344,3.61 -5.016,8.334 -5.016,14.172c0,5.839 1.672,10.563 5.016,14.172c3.344,3.609 8.042,5.414 14.092,5.414c2.654,0 4.937,-0.584 6.848,-1.752c1.91,-1.167 3.556,-2.547 4.936,-4.14l15.764,16.561c-3.715,3.821 -8.094,6.502 -13.137,8.041c-5.042,1.539 -9.846,2.309 -14.411,2.309c-5.944,0 -11.544,-0.955 -16.799,-2.866c-5.254,-1.911 -9.819,-4.645 -13.694,-8.201c-3.875,-3.556 -6.927,-7.829 -9.156,-12.818c-2.229,-4.989 -3.344,-10.563 -3.344,-16.72c0,-6.157 1.115,-11.73 3.344,-16.719c2.229,-4.99 5.281,-9.263 9.156,-12.819c3.875,-3.556 8.44,-6.289 13.694,-8.2c5.255,-1.911 10.855,-2.867 16.799,-2.867c4.565,0 9.369,0.77 14.411,2.309c5.043,1.54 9.422,4.22 13.137,8.042l-15.764,16.56Z" style="fill:#ff001e;fill-rule:nonzero;"/><path d="M384.578,13.708l23.885,0l-0,73.566l26.433,-30.573l29.299,0l-30.732,34.873l31.528,42.515l-30.095,0l-26.115,-39.171l-0.318,-0l-0,39.171l-23.885,0l-0,-120.381Z" style="fill:#ff001e;fill-rule:nonzero;"/><g id="qclick-icon"><path d="M137.032,136.637l-68.188,-0c-38.641,-0 -68.189,-29.548 -68.189,-68.189c0,-38.64 29.548,-68.188 68.189,-68.188c38.64,-0 68.188,29.548 68.188,68.188l0,68.189Zm-44.138,-28.72l5.688,5.689l14.357,-14.356l-5.451,-5.451c4.789,-7.281 7.576,-15.993 7.576,-25.351c-0,-25.509 -20.711,-46.22 -46.22,-46.22c-25.51,0 -46.22,20.711 -46.22,46.22c-0,25.51 20.71,46.22 46.22,46.22c8.807,0 17.042,-2.468 24.05,-6.751Zm-13.37,-13.369c-3.295,1.351 -6.901,2.096 -10.68,2.096c-15.562,0 -28.196,-12.634 -28.196,-28.196c-0,-15.561 12.634,-28.196 28.196,-28.196c15.561,0 28.195,12.635 28.195,28.196c0,4.351 -0.987,8.472 -2.749,12.153l-6.475,-6.475l-14.356,14.356l6.065,6.066Z" style="fill:#ff001e;"/></g></g></svg>